name Walk10.mot
datacolumns 19
datarows 20
range 1.43000000 1.52500000
endheader

                time	   L_ground_force_vx	   L_ground_force_vy	   L_ground_force_vz	   L_ground_force_px	   L_ground_force_py	   L_ground_force_pz	   R_ground_force_vx	   R_ground_force_vy	   R_ground_force_vz	   R_ground_force_px	   R_ground_force_py	   R_ground_force_pz	   L_ground_torque_x	   L_ground_torque_y	   L_ground_torque_z	   R_ground_torque_x	   R_ground_torque_y	   R_ground_torque_z	
          1.43000000	         32.63424219	        507.28443251	         22.80721413	         -0.18648903	          0.00000000	          0.01127429	         -0.07393823	          0.32452935	          0.00549072	          0.00007247	          0.00000000	          0.00002149	          0.00000000	         -0.64821998	          0.00000000	          0.00000000	          0.01504133	          0.00000000	
          1.43500000	         36.41877367	        517.58559728	         23.09833653	         -0.18623348	          0.00000000	          0.01152475	         -0.09621762	          0.00915865	         -0.02236191	         -0.00028687	          0.00000000	         -0.00014057	          0.00000000	         -0.71246284	          0.00000000	          0.00000000	          0.02018125	          0.00000000	
          1.44000000	         40.28299920	        527.77706793	         23.33068202	         -0.18594572	          0.00000000	          0.01178636	         -0.11909331	         -0.48375354	         -0.06303687	         -0.00081183	          0.00000000	         -0.00037595	          0.00000000	         -0.77237036	          0.00000000	          0.00000000	          0.02570741	          0.00000000	
          1.44500000	         44.22865736	        537.73901221	         23.48911957	         -0.18562785	          0.00000000	          0.01206072	         -0.14007765	         -1.19273041	         -0.11869037	         -0.00153032	          0.00000000	         -0.00069664	          0.00000000	         -0.82759429	          0.00000000	          0.00000000	          0.03115435	          0.00000000	
          1.45000000	         48.25634633	        547.33186624	         23.55884229	         -0.18528183	          0.00000000	          0.01235014	         -0.15552471	         -2.15119740	         -0.19083745	         -0.00246199	          0.00000000	         -0.00111079	          0.00000000	         -0.87767695	          0.00000000	          0.00000000	          0.03580600	          0.00000000	
          1.45500000	         52.36519109	        556.40013008	         23.52603883	         -0.18490933	          0.00000000	          0.01265713	         -0.16043196	         -3.38050833	         -0.27980652	         -0.00361119	          0.00000000	         -0.00161963	          0.00000000	         -0.92224151	          0.00000000	          0.00000000	          0.03864379	          0.00000000	
          1.46000000	         56.55135162	        564.77837655	         23.37852104	         -0.18451098	          0.00000000	          0.01298136	         -0.14829847	         -4.88055926	         -0.38403509	         -0.00495786	          0.00000000	         -0.00221335	          0.00000000	         -0.96089827	          0.00000000	          0.00000000	          0.03830313	          0.00000000	
          1.46500000	         60.80603366	        572.29862304	         23.10706142	         -0.18408585	          0.00000000	          0.01332104	         -0.11108839	         -6.61779823	         -0.49920470	         -0.00644639	          0.00000000	         -0.00286622	          0.00000000	         -0.99324361	          0.00000000	          0.00000000	          0.03304805	          0.00000000	
          1.47000000	         65.11415357	        578.79524393	         22.70505119	         -0.18363192	          0.00000000	          0.01367431	         -0.03936342	         -8.51065308	         -0.61723189	         -0.00797255	          0.00000000	         -0.00353080	          0.00000000	         -1.01874665	          0.00000000	          0.00000000	          0.02077764	          0.00000000	
          1.47500000	         69.45517848	        584.10888155	         22.16995084	         -0.18314717	          0.00000000	          0.01404002	          0.07733765	        -10.41273003	         -0.72515908	         -0.00936917	          0.00000000	         -0.00413169	          0.00000000	         -1.03693016	          0.00000000	          0.00000000	         -0.00091905	          0.00000000	
          1.48000000	         73.80660355	        588.09172656	         21.50506343	         -0.18263050	          0.00000000	          0.01441655	          0.24978103	        -12.09460823	         -0.80402606	         -0.01039156	          0.00000000	         -0.00455916	          0.00000000	         -1.04695005	          0.00000000	          0.00000000	         -0.03463909	          0.00000000	
          1.48500000	         78.14563980	        590.60611970	         20.72169602	         -0.18208283	          0.00000000	          0.01480196	          0.48788073	        -13.22569015	         -0.82785064	         -0.01070428	          0.00000000	         -0.00466347	          0.00000000	         -1.04767601	          0.00000000	          0.00000000	         -0.08294947	          0.00000000	
          1.49000000	         82.44911407	        591.52086566	         19.83833947	         -0.18150750	          0.00000000	          0.01519412	          0.79899917	        -13.35837738	         -0.76290499	         -0.00987179	          0.00000000	         -0.00425099	          0.00000000	         -1.03814734	          0.00000000	          0.00000000	         -0.14805370	          0.00000000	
          1.49500000	         86.69195992	        590.70759048	         18.87936348	         -0.18090940	          0.00000000	          0.01559250	          1.18561192	        -11.91782410	         -0.56754244	         -0.00735615	          0.00000000	         -0.00308351	          0.00000000	         -1.01806927	          0.00000000	          0.00000000	         -0.23131672	          0.00000000	
          1.50000000	         90.84401274	        588.03778228	         17.87090619	         -0.18029379	          0.00000000	          0.01599587	          1.64226875	         -8.20165219	         -0.19290413	         -0.00252609	          0.00000000	         -0.00088268	          0.00000000	         -0.98733666	          0.00000000	          0.00000000	         -0.33262755	          0.00000000	
          1.50500000	         94.86708058	        583.38257924	         16.83709014	         -0.17966710	          0.00000000	          0.01640359	          2.15183231	         -1.39523510	          0.41508975	          0.00531734	          0.00000000	          0.00265811	          0.00000000	         -0.94608112	          0.00000000	          0.00000000	         -0.44958728	          0.00000000	
          1.51000000	         98.71171277	        576.61244477	         15.79615070	         -0.17903678	          0.00000000	          0.01681446	          2.68105402	          9.39062529	          1.31199085	          0.01689244	          0.00000000	          0.00785172	          0.00000000	         -0.89451092	          0.00000000	          0.00000000	         -0.57652518	          0.00000000	
          1.51500000	        102.31248590	        567.59625310	         14.75804163	         -0.17841145	          0.00000000	          0.01722671	          3.17566239	         25.05174934	          2.54879491	          0.03285912	          0.00000000	          0.01498219	          0.00000000	         -0.83285507	          0.00000000	          0.00000000	         -0.70336782	          0.00000000	
          1.52000000	        105.58384471	        556.20222194	         13.72194863	         -0.17779831	          0.00000000	          0.01763903	          3.55529629	         46.38380428	          4.16310408	          0.05370477	          0.00000000	          0.02425357	          0.00000000	         -0.76154295	          0.00000000	          0.00000000	         -0.81441865	          0.00000000	
          1.52500000	        108.41726684	        542.30095103	         12.67514628	         -0.17720050	          0.00000000	          0.01805072	          3.70882183	         73.92815239	          6.16699742	          0.07958776	          0.00000000	          0.03572004	          0.00000000	         -0.68159304	          0.00000000	          0.00000000	         -0.88714837	          0.00000000	
